<svg width="227" height="30" viewBox="0 0 227 30" fill="none" xmlns="http://www.w3.org/2000/svg">
<path d="M14.048 29.432C12.104 29.432 10.292 29.12 8.612 28.496C6.956 27.848 5.516 26.936 4.292 25.76C3.068 24.584 2.108 23.204 1.412 21.62C0.74 20.036 0.404 18.296 0.404 16.4C0.404 14.504 0.74 12.764 1.412 11.18C2.108 9.596 3.068 8.216 4.292 7.04C5.54 5.864 6.992 4.964 8.648 4.34C10.304 3.692 12.116 3.368 14.084 3.368C16.268 3.368 18.236 3.752 19.988 4.52C21.764 5.264 23.252 6.368 24.452 7.832L20.708 11.288C19.844 10.304 18.884 9.572 17.828 9.092C16.772 8.588 15.62 8.336 14.372 8.336C13.196 8.336 12.116 8.528 11.132 8.912C10.148 9.296 9.296 9.848 8.576 10.568C7.856 11.288 7.292 12.14 6.884 13.124C6.5 14.108 6.308 15.2 6.308 16.4C6.308 17.6 6.5 18.692 6.884 19.676C7.292 20.66 7.856 21.512 8.576 22.232C9.296 22.952 10.148 23.504 11.132 23.888C12.116 24.272 13.196 24.464 14.372 24.464C15.62 24.464 16.772 24.224 17.828 23.744C18.884 23.24 19.844 22.484 20.708 21.476L24.452 24.932C23.252 26.396 21.764 27.512 19.988 28.28C18.236 29.048 16.256 29.432 14.048 29.432ZM27.9943 29V9.632H33.6103V29H27.9943ZM30.8023 6.932C29.7703 6.932 28.9303 6.632 28.2823 6.032C27.6343 5.432 27.3103 4.688 27.3103 3.8C27.3103 2.912 27.6343 2.168 28.2823 1.568C28.9303 0.967998 29.7703 0.667998 30.8023 0.667998C31.8343 0.667998 32.6743 0.955998 33.3223 1.532C33.9703 2.084 34.2943 2.804 34.2943 3.692C34.2943 4.628 33.9703 5.408 33.3223 6.032C32.6983 6.632 31.8583 6.932 30.8023 6.932ZM50.5945 9.344C52.1305 9.344 53.4985 9.656 54.6985 10.28C55.9225 10.88 56.8825 11.816 57.5785 13.088C58.2745 14.336 58.6225 15.944 58.6225 17.912V29H53.0065V18.776C53.0065 17.216 52.6585 16.064 51.9625 15.32C51.2905 14.576 50.3305 14.204 49.0825 14.204C48.1945 14.204 47.3905 14.396 46.6705 14.78C45.9745 15.14 45.4225 15.704 45.0145 16.472C44.6305 17.24 44.4385 18.224 44.4385 19.424V29H38.8225V9.632H44.1865V14.996L43.1785 13.376C43.8745 12.08 44.8705 11.084 46.1665 10.388C47.4625 9.692 48.9385 9.344 50.5945 9.344ZM73.4657 29.288C71.2577 29.288 69.3137 28.856 67.6337 27.992C65.9777 27.128 64.6937 25.952 63.7817 24.464C62.8697 22.952 62.4137 21.236 62.4137 19.316C62.4137 17.372 62.8577 15.656 63.7457 14.168C64.6577 12.656 65.8937 11.48 67.4537 10.64C69.0137 9.776 70.7777 9.344 72.7457 9.344C74.6417 9.344 76.3457 9.752 77.8577 10.568C79.3937 11.36 80.6057 12.512 81.4937 14.024C82.3817 15.512 82.8257 17.3 82.8257 19.388C82.8257 19.604 82.8137 19.856 82.7897 20.144C82.7657 20.408 82.7417 20.66 82.7177 20.9H66.9857V17.624H79.7657L77.6057 18.596C77.6057 17.588 77.4017 16.712 76.9937 15.968C76.5857 15.224 76.0217 14.648 75.3017 14.24C74.5817 13.808 73.7417 13.592 72.7817 13.592C71.8217 13.592 70.9697 13.808 70.2257 14.24C69.5057 14.648 68.9417 15.236 68.5337 16.004C68.1257 16.748 67.9217 17.636 67.9217 18.668V19.532C67.9217 20.588 68.1497 21.524 68.6057 22.34C69.0857 23.132 69.7457 23.744 70.5857 24.176C71.4497 24.584 72.4577 24.788 73.6097 24.788C74.6417 24.788 75.5417 24.632 76.3097 24.32C77.1017 24.008 77.8217 23.54 78.4697 22.916L81.4577 26.156C80.5697 27.164 79.4537 27.944 78.1097 28.496C76.7657 29.024 75.2177 29.288 73.4657 29.288ZM99.0207 29.432C97.0767 29.432 95.2647 29.12 93.5847 28.496C91.9287 27.848 90.4887 26.936 89.2647 25.76C88.0407 24.584 87.0807 23.204 86.3847 21.62C85.7127 20.036 85.3767 18.296 85.3767 16.4C85.3767 14.504 85.7127 12.764 86.3847 11.18C87.0807 9.596 88.0407 8.216 89.2647 7.04C90.5127 5.864 91.9647 4.964 93.6207 4.34C95.2767 3.692 97.0887 3.368 99.0567 3.368C101.241 3.368 103.209 3.752 104.961 4.52C106.737 5.264 108.225 6.368 109.425 7.832L105.681 11.288C104.817 10.304 103.857 9.572 102.801 9.092C101.745 8.588 100.593 8.336 99.3447 8.336C98.1687 8.336 97.0887 8.528 96.1047 8.912C95.1207 9.296 94.2687 9.848 93.5487 10.568C92.8287 11.288 92.2647 12.14 91.8567 13.124C91.4727 14.108 91.2807 15.2 91.2807 16.4C91.2807 17.6 91.4727 18.692 91.8567 19.676C92.2647 20.66 92.8287 21.512 93.5487 22.232C94.2687 22.952 95.1207 23.504 96.1047 23.888C97.0887 24.272 98.1687 24.464 99.3447 24.464C100.593 24.464 101.745 24.224 102.801 23.744C103.857 23.24 104.817 22.484 105.681 21.476L109.425 24.932C108.225 26.396 106.737 27.512 104.961 28.28C103.209 29.048 101.229 29.432 99.0207 29.432ZM112.967 29V9.632H118.583V29H112.967ZM115.775 6.932C114.743 6.932 113.903 6.632 113.255 6.032C112.607 5.432 112.283 4.688 112.283 3.8C112.283 2.912 112.607 2.168 113.255 1.568C113.903 0.967998 114.743 0.667998 115.775 0.667998C116.807 0.667998 117.647 0.955998 118.295 1.532C118.943 2.084 119.267 2.804 119.267 3.692C119.267 4.628 118.943 5.408 118.295 6.032C117.671 6.632 116.831 6.932 115.775 6.932ZM135.567 9.344C137.103 9.344 138.471 9.656 139.671 10.28C140.895 10.88 141.855 11.816 142.551 13.088C143.247 14.336 143.595 15.944 143.595 17.912V29H137.979V18.776C137.979 17.216 137.631 16.064 136.935 15.32C136.263 14.576 135.303 14.204 134.055 14.204C133.167 14.204 132.363 14.396 131.643 14.78C130.947 15.14 130.395 15.704 129.987 16.472C129.603 17.24 129.411 18.224 129.411 19.424V29H123.795V9.632H129.159V14.996L128.151 13.376C128.847 12.08 129.843 11.084 131.139 10.388C132.435 9.692 133.911 9.344 135.567 9.344ZM158.438 29.288C156.23 29.288 154.286 28.856 152.606 27.992C150.95 27.128 149.666 25.952 148.754 24.464C147.842 22.952 147.386 21.236 147.386 19.316C147.386 17.372 147.83 15.656 148.718 14.168C149.63 12.656 150.866 11.48 152.426 10.64C153.986 9.776 155.75 9.344 157.718 9.344C159.614 9.344 161.318 9.752 162.83 10.568C164.366 11.36 165.578 12.512 166.466 14.024C167.354 15.512 167.798 17.3 167.798 19.388C167.798 19.604 167.786 19.856 167.762 20.144C167.738 20.408 167.714 20.66 167.69 20.9H151.958V17.624H164.738L162.578 18.596C162.578 17.588 162.374 16.712 161.966 15.968C161.558 15.224 160.994 14.648 160.274 14.24C159.554 13.808 158.714 13.592 157.754 13.592C156.794 13.592 155.942 13.808 155.198 14.24C154.478 14.648 153.914 15.236 153.506 16.004C153.098 16.748 152.894 17.636 152.894 18.668V19.532C152.894 20.588 153.122 21.524 153.578 22.34C154.058 23.132 154.718 23.744 155.558 24.176C156.422 24.584 157.43 24.788 158.582 24.788C159.614 24.788 160.514 24.632 161.282 24.32C162.074 24.008 162.794 23.54 163.442 22.916L166.43 26.156C165.542 27.164 164.426 27.944 163.082 28.496C161.738 29.024 160.19 29.288 158.438 29.288Z" fill="white"/>
<path d="M196.341 9.344C197.877 9.344 199.233 9.656 200.409 10.28C201.609 10.88 202.545 11.816 203.217 13.088C203.913 14.336 204.261 15.944 204.261 17.912V29H198.645V18.776C198.645 17.216 198.321 16.064 197.673 15.32C197.025 14.576 196.113 14.204 194.937 14.204C194.121 14.204 193.389 14.396 192.741 14.78C192.093 15.14 191.589 15.692 191.229 16.436C190.869 17.18 190.689 18.128 190.689 19.28V29H185.073V18.776C185.073 17.216 184.749 16.064 184.101 15.32C183.477 14.576 182.577 14.204 181.401 14.204C180.585 14.204 179.853 14.396 179.205 14.78C178.557 15.14 178.053 15.692 177.693 16.436C177.333 17.18 177.153 18.128 177.153 19.28V29H171.537V9.632H176.901V14.924L175.893 13.376C176.565 12.056 177.513 11.06 178.737 10.388C179.985 9.692 181.401 9.344 182.985 9.344C184.761 9.344 186.309 9.8 187.629 10.712C188.973 11.6 189.861 12.968 190.293 14.816L188.313 14.276C188.961 12.764 189.993 11.564 191.409 10.676C192.849 9.788 194.493 9.344 196.341 9.344ZM221.175 29V25.22L220.815 24.392V17.624C220.815 16.424 220.443 15.488 219.699 14.816C218.979 14.144 217.863 13.808 216.351 13.808C215.319 13.808 214.299 13.976 213.291 14.312C212.307 14.624 211.467 15.056 210.771 15.608L208.755 11.684C209.811 10.94 211.083 10.364 212.571 9.956C214.059 9.548 215.571 9.344 217.107 9.344C220.059 9.344 222.351 10.04 223.983 11.432C225.615 12.824 226.431 14.996 226.431 17.948V29H221.175ZM215.271 29.288C213.759 29.288 212.463 29.036 211.383 28.532C210.303 28.004 209.475 27.296 208.899 26.408C208.323 25.52 208.035 24.524 208.035 23.42C208.035 22.268 208.311 21.26 208.863 20.396C209.439 19.532 210.339 18.86 211.563 18.38C212.787 17.876 214.383 17.624 216.351 17.624H221.499V20.9H216.963C215.643 20.9 214.731 21.116 214.227 21.548C213.747 21.98 213.507 22.52 213.507 23.168C213.507 23.888 213.783 24.464 214.335 24.896C214.911 25.304 215.691 25.508 216.675 25.508C217.611 25.508 218.451 25.292 219.195 24.86C219.939 24.404 220.479 23.744 220.815 22.88L221.679 25.472C221.271 26.72 220.527 27.668 219.447 28.316C218.367 28.964 216.975 29.288 215.271 29.288Z" fill="#38AAFF"/>
</svg>
